<svg width="216" height="408" viewBox="0 0 216 408" fill="none" xmlns="http://www.w3.org/2000/svg">
<path fill-rule="evenodd" clip-rule="evenodd" d="M193.194 296.697C182.54 285.377 165.611 279.726 142.425 279.726H74.531C64.8318 279.726 60.0728 275.201 60.0728 266.331C60.0728 261.611 61.5878 257.658 64.8318 254.832C68.0594 252.006 70.7271 250.307 72.8185 249.736C84.8066 254.26 96.3995 256.531 107.614 256.531C132.71 256.531 152.866 249.36 168.081 235.018C193.951 210.876 190.707 180.69 190.707 180.69H146.97C146.97 181.066 148.107 197.106 136.316 207.103C128.906 213.146 119.585 216.724 107.416 216.724C95.2468 216.724 85.5476 213.522 78.5161 207.103C71.1058 200.128 68.0594 181.066 67.8618 180.69H24.306C24.306 181.066 23.5485 196.91 30.7776 212.575C34.0052 219.55 40.2792 228.044 44.4619 232.388C27.9123 241.813 19.7445 256.155 19.7445 275.201C19.7445 291.421 25.4422 303.492 36.854 311.611C22.017 321.607 14.4092 335.001 14.4092 351.597C14.4092 370.088 22.017 384.037 37.0351 393.658C52.0533 403.083 76.4083 408 110.067 408C142.59 408 167.307 401.401 184.038 388.382C200.769 375.364 209.134 359.715 209.134 341.405C209.167 322.734 203.848 308.017 193.194 296.697ZM109.145 368.373C89.368 368.373 75.6673 366.298 67.8783 362.329C60.0893 358.36 56.2853 351.761 56.2853 342.515C56.2853 333.466 60.0893 326.475 67.8783 321.575H141.092C148.881 321.575 154.776 323.273 159.156 326.671C163.339 330.068 165.628 334.969 165.628 341.388C165.628 359.323 146.789 368.373 109.145 368.373Z" fill="#CBE626"/>
<path d="M201.311 74.0277C206.861 83.6977 214.798 100.555 216 112.316C198.117 98.4151 182.357 82.9463 149.489 77.9316C162.778 63.9983 167.619 53.381 172.214 43.1719C181.221 46.0141 196.667 65.9258 201.311 74.0277ZM1.00378 95.9649C8.11762 65.4195 50.4878 35.1844 68.5853 22.2802C84.6244 10.8298 104.418 0 121.873 0C127.143 0 132.182 0.996385 136.858 3.25054C117.312 27.7522 52.8262 86.4582 5.00532 127.997C0.196884 116.105 -1.1699 105.325 1.00378 95.9649ZM26.1986 166.432C16.5324 160.078 13.1895 152.057 10.1102 140.934C62.69 98.6274 117.707 46.4388 146.064 11.9405C150.032 13.1492 158.842 25.8248 160.061 32.9302C149.456 58.3466 130.123 79.3201 108.535 98.6764C108.436 98.7581 108.354 98.8397 108.255 98.9214C99.1155 107.089 72.2575 130.97 62.229 138.042L26.1986 166.432ZM72.5704 147.712C75.7815 145.034 94.2248 133.714 97.5018 131.019C105.604 124.305 115.023 117.167 116.884 112.806C128.575 117.314 148.27 141.326 156.932 152.335C128.016 142.191 91.6394 145.377 72.5704 147.712ZM182.934 166.138C182.934 166.138 179.525 159.914 172.856 151.747L165.149 141.195C163.19 138.81 161.23 136.311 159.237 133.779C150.658 122.835 141.222 110.846 128.328 103.315C133.071 98.7254 137.682 93.9557 142.095 89.0391C157.442 86.4582 197.557 111.434 209.742 129.254C209.248 132.668 210.335 138.042 206.4 149.738C202.135 162.511 182.934 166.138 182.934 166.138Z" fill="#CBE626"/>
</svg>
